<svg width="55" height="55" viewBox="0 0 55 55" fill="none" xmlns="http://www.w3.org/2000/svg">
    <circle cx="27.5" cy="27.5" r="27.5" transform="rotate(90 27.5 27.5)" fill="#181818" />
    <circle cx="27.5" cy="27.5" r="27" transform="rotate(90 27.5 27.5)" stroke="white"
        stroke-opacity="0.12" />
    <path
        d="M35.4566 27.0024L21.5457 27.2832L27.0432 21.7857C27.1424 21.6899 27.2215 21.5753 27.2759 21.4486C27.3304 21.3219 27.359 21.1856 27.3602 21.0477C27.3614 20.9098 27.3351 20.773 27.2829 20.6453C27.2307 20.5177 27.1536 20.4017 27.056 20.3042C26.9585 20.2067 26.8426 20.1296 26.7149 20.0773C26.5873 20.0251 26.4505 19.9988 26.3126 20C26.1747 20.0012 26.0384 20.0299 25.9117 20.0843C25.785 20.1388 25.6704 20.2179 25.5745 20.3171L18.3041 27.5875C18.1094 27.7823 18 28.0464 18 28.3218C18 28.5973 18.1094 28.8614 18.3041 29.0562L25.5745 36.3266C25.7704 36.5158 26.0328 36.6205 26.3051 36.6181C26.5774 36.6158 26.838 36.5065 27.0305 36.314C27.2231 36.1214 27.3323 35.8609 27.3347 35.5886C27.3371 35.3162 27.2324 35.0539 27.0432 34.858L21.5457 29.3605L35.4566 29.0796C35.7321 29.0796 35.9963 28.9702 36.1911 28.7754C36.3858 28.5807 36.4953 28.3165 36.4953 28.041C36.4953 27.7655 36.3858 27.5014 36.1911 27.3066C35.9963 27.1118 35.7321 27.0024 35.4566 27.0024Z"
        fill="white" />
</svg>
    