<svg width="14" height="14" viewBox="0 0 14 14" fill="none" xmlns="http://www.w3.org/2000/svg">
    <path
        d="M6.99999 0C3.13414 0 0 3.13304 0 6.99999C0 10.8669 3.13414 14 6.99999 14C10.8659 14 14 10.865 14 6.99999C14 3.13496 10.8659 0 6.99999 0Z"
        fill="#29BF4C" />
    <path
        d="M10.9922 5.83973L6.78486 10.2582C6.6702 10.3785 6.53244 10.4744 6.37983 10.5402C6.22723 10.606 6.06291 10.6403 5.89673 10.641H5.89127C5.72601 10.6411 5.56243 10.6079 5.41024 10.5435C5.25806 10.4791 5.12036 10.3848 5.00533 10.2661L2.77271 7.96653C2.65736 7.85073 2.56615 7.71318 2.50438 7.56185C2.44261 7.41053 2.41151 7.24844 2.41289 7.085C2.41426 6.92156 2.44809 6.76001 2.5124 6.60975C2.57671 6.45949 2.67022 6.32349 2.78751 6.20966C2.90481 6.09582 3.04354 6.00642 3.19566 5.94663C3.34778 5.88685 3.51026 5.85787 3.67367 5.86138C3.83708 5.8649 3.99817 5.90083 4.14758 5.9671C4.29699 6.03337 4.43175 6.12866 4.54404 6.24743L5.88252 7.6261L9.2045 4.13758C9.31579 4.01826 9.44963 3.92218 9.59828 3.85491C9.74693 3.78764 9.90744 3.7505 10.0705 3.74566C10.2336 3.74082 10.3961 3.76836 10.5484 3.82669C10.7008 3.88502 10.8401 3.97299 10.9583 4.0855C11.0765 4.19801 11.1711 4.33283 11.2369 4.48217C11.3026 4.63151 11.3381 4.7924 11.3412 4.95553C11.3444 5.11867 11.3152 5.28081 11.2553 5.43258C11.1954 5.58435 11.106 5.72273 10.9922 5.83973Z"
        fill="white" />
</svg>
    