<svg width="135" height="31" viewBox="0 0 135 31" fill="none" xmlns="http://www.w3.org/2000/svg">
	<path d="M1.01554 28.184V22.6729H11.92C12.3351 22.6831 12.7449 22.5803 13.1031 22.3759C13.432 22.1825 13.7049 21.9107 13.896 21.5861C14.0894 21.2636 14.1905 20.8965 14.1887 20.523C14.1937 20.1379 14.0926 19.7585 13.896 19.4244C13.7049 19.0998 13.432 18.8279 13.1031 18.6345C12.7449 18.4302 12.3351 18.3273 11.92 18.3376H8.29737C6.85241 18.3572 5.42178 18.0567 4.11367 17.4586C2.89114 16.8978 1.85395 16.0154 1.11922 14.9109C0.348856 13.707 -0.0393888 12.3083 0.00315737 10.8904C-0.0317171 9.47668 0.335539 8.08111 1.06433 6.85797C1.75261 5.73155 2.74373 4.80955 3.93071 4.19147C5.16077 3.55155 6.53696 3.22469 7.93145 3.24127H19.4214V8.75243H8.80966C8.44152 8.74672 8.07879 8.83914 7.76069 9.01968C7.4616 9.18809 7.215 9.43233 7.04714 9.72639C6.87899 10.0246 6.79286 10.3601 6.79709 10.7003C6.79294 11.0405 6.87907 11.376 7.04714 11.6743C7.21575 11.9694 7.46205 12.2153 7.76069 12.387C8.07749 12.5711 8.44073 12.6657 8.80966 12.6601H12.6518C14.1742 12.6255 15.6832 12.943 17.0551 13.5866C18.2566 14.1591 19.2657 15.0531 19.9642 16.164C20.6718 17.3402 21.0287 18.6852 20.9948 20.0479C21.0407 21.5838 20.6683 23.1042 19.9154 24.4545C19.2422 25.6294 18.2396 26.5934 17.0246 27.2338C15.7922 27.8733 14.4141 28.2001 13.0178 28.184H1.01554ZM23.9344 28.184V9.83329H30.3014V28.184H23.9344ZM27.1179 7.83787C26.6495 7.84372 26.1848 7.75492 25.7534 7.57705C25.322 7.39919 24.9331 7.13615 24.6114 6.80452C24.2787 6.49004 24.0148 6.11325 23.8355 5.69684C23.6563 5.28043 23.5655 4.833 23.5685 4.38151C23.5617 3.92685 23.6508 3.47567 23.8302 3.05585C24.0095 2.63603 24.2754 2.25649 24.6114 1.94068C24.9357 1.61354 25.3254 1.35464 25.7566 1.17997C26.1877 1.0053 26.651 0.918572 27.1179 0.925153C27.5848 0.918572 28.0482 1.0053 28.4793 1.17997C28.9104 1.35464 29.3002 1.61354 29.6245 1.94068C29.9604 2.25649 30.2263 2.63603 30.4057 3.05585C30.5851 3.47567 30.6741 3.92685 30.6674 4.38151C30.6704 4.833 30.5795 5.28043 30.4003 5.69684C30.2211 6.11325 29.9572 6.49004 29.6245 6.80452C29.3027 7.13615 28.9139 7.39919 28.4824 7.57705C28.051 7.75492 27.5864 7.84372 27.1179 7.83787ZM33.8509 28.184V15.3682C33.8094 14.6291 33.9227 13.8895 34.1837 13.1942C34.4448 12.499 34.8482 11.8627 35.3694 11.3239C35.9348 10.8122 36.6008 10.4173 37.3272 10.1632C38.0536 9.909 38.8253 9.80083 39.5958 9.84516H45.3652V14.6793H41.523C41.3489 14.6736 41.1754 14.7022 41.013 14.7635C40.8505 14.8247 40.7025 14.9173 40.5777 15.0356C40.4535 15.1568 40.3564 15.3016 40.2923 15.461C40.2283 15.6204 40.1988 15.791 40.2057 15.9621V28.184H33.8509ZM57.8797 28.184C55.9423 28.2213 54.0203 27.8421 52.2506 27.0735C50.69 26.3908 49.3584 25.2937 48.4084 23.9081C47.4524 22.4534 46.9659 20.753 47.0118 19.0265C46.9484 17.1837 47.4175 15.3606 48.3657 13.7647C49.2249 12.3789 50.462 11.2523 51.9396 10.5103C53.417 9.76664 55.0578 9.3835 56.7209 9.39382C58.3989 9.35163 60.0586 9.74082 61.5328 10.5222C62.8713 11.2589 63.9653 12.3531 64.6858 13.6757C65.4611 15.137 65.8469 16.7645 65.808 18.4088C65.808 18.7889 65.7877 19.2264 65.747 19.7213C65.7189 20.1351 65.6577 20.5461 65.564 20.9506H53.5984C53.7119 21.4345 53.9537 21.8809 54.2998 22.2453C54.6658 22.6104 55.1245 22.8747 55.6293 23.0114C56.2338 23.1812 56.8608 23.2633 57.49 23.2549H63.7344V28.184H57.8797ZM53.3667 17.3399H59.8191C59.8051 17.0123 59.7519 16.6874 59.6605 16.3719C59.5739 16.0733 59.438 15.7905 59.258 15.5345C59.0815 15.2835 58.8677 15.0593 58.6237 14.8694C58.3655 14.6719 58.0718 14.5229 57.7577 14.4299C57.4021 14.3238 57.0318 14.2718 56.66 14.2755C56.1938 14.2668 55.7309 14.3517 55.3 14.5249C54.9253 14.678 54.5869 14.9044 54.3059 15.19C54.0342 15.4724 53.8209 15.8031 53.6777 16.164C53.5255 16.5422 53.4211 16.9371 53.3667 17.3399ZM68.7963 28.184V17.6249C68.7745 16.1418 69.1871 14.6834 69.9856 13.4203C70.804 12.1543 71.9673 11.1346 73.346 10.4747C74.9327 9.7237 76.6808 9.35311 78.4445 9.39382C80.195 9.34793 81.9305 9.71896 83.5003 10.4747C84.847 11.1367 85.9723 12.1584 86.7448 13.4203C87.5059 14.6961 87.8959 16.1496 87.873 17.6249V28.184H81.5182V17.91C81.5225 17.3796 81.3837 16.8574 81.1157 16.3956C80.8491 15.9341 80.4647 15.5475 79.9996 15.2732C79.501 14.9821 78.9281 14.8339 78.3469 14.8456C77.7582 14.836 77.1781 14.9839 76.6698 15.2732C76.1941 15.5422 75.8005 15.9296 75.5293 16.3956C75.2613 16.8574 75.1225 17.3796 75.1268 17.91V28.184H68.7963Z" fill="white"/>
	<path d="M113.739 28.4959L119.557 20.5024C118.618 20.0304 117.764 19.4148 117.026 18.6792C116.36 18.0057 115.834 17.2132 115.477 16.3452C115.117 15.4486 114.937 14.493 114.946 13.5303V10.1333H121.277V12.9364C121.27 13.4275 121.374 13.9141 121.582 14.3617C121.771 14.7703 122.045 15.1363 122.387 15.4366C122.704 15.7162 123.072 15.9357 123.472 16.0839L127.375 10.1333H134.694L129.242 17.8062C130.267 18.2315 131.202 18.8398 131.998 19.5997C132.73 20.3045 133.307 21.1471 133.694 22.0761C134.081 23.0264 134.276 24.0409 134.267 25.0633V28.4959H127.912V25.4197C127.92 24.8816 127.788 24.3504 127.528 23.8756C127.284 23.4304 126.943 23.0431 126.528 22.7413C126.135 22.4512 125.669 22.2688 125.18 22.2127L121.033 28.4959H113.739Z" fill="#494949"/>
	<mask id="mask0_21_1139" style="mask-type:luminance" maskUnits="userSpaceOnUse" x="102" y="9" width="11" height="22">
	<path d="M112.586 30.1382V9.6792H102.29V30.1382H112.586Z" fill="white"/>
	</mask>
	<g mask="url(#mask0_21_1139)">
	<path d="M101.79 28.5703C100.025 28.6113 98.2759 28.2364 96.6916 27.4776C95.314 26.8107 94.1514 25.7875 93.3312 24.5201C92.5326 23.257 92.1201 21.7986 92.1419 20.3155V9.75635H98.4724V20.0304C98.4712 20.5566 98.6099 21.0742 98.8749 21.5329C99.1432 22.0041 99.5372 22.396 100.015 22.6672C100.524 22.9565 101.104 23.1044 101.692 23.0948C102.274 23.1065 102.847 22.9583 103.345 22.6672C103.813 22.3906 104.197 21.9995 104.461 21.5329C104.726 21.0742 104.865 20.5566 104.864 20.0304V9.75635H111.219V20.3155C111.242 21.7908 110.852 23.2443 110.09 24.5201C109.316 25.7835 108.192 26.8086 106.846 27.4776C105.279 28.2412 103.542 28.6165 101.79 28.5703Z" fill="#494949"/>
	</g>
	<mask id="mask1_21_1139" style="mask-type:luminance" maskUnits="userSpaceOnUse" x="90" y="9" width="11" height="22">
	<path d="M90.0925 30.1382V9.6792H100.388V30.1382H90.0925Z" fill="white"/>
	</mask>
	<g mask="url(#mask1_21_1139)">
	<path d="M100.888 28.5703C102.653 28.6113 104.402 28.2364 105.986 27.4776C107.364 26.8107 108.526 25.7875 109.346 24.5201C110.145 23.257 110.558 21.7986 110.536 20.3155V9.75635H104.205V20.0304C104.206 20.5566 104.068 21.0742 103.803 21.5329C103.534 22.0041 103.14 22.396 102.662 22.6672C102.154 22.9565 101.574 23.1044 100.985 23.0948C100.404 23.1065 99.831 22.9583 99.3324 22.6672C98.865 22.3906 98.4802 21.9995 98.2163 21.5329C97.9513 21.0742 97.8127 20.5566 97.8138 20.0304V9.75635H91.459V20.3155C91.436 21.7908 91.826 23.2443 92.5872 24.5201C93.3615 25.7835 94.4861 26.8086 95.8317 27.4776C97.3991 28.2412 99.1356 28.6165 100.888 28.5703Z" fill="white"/>
	</g>
	<path d="M108.17 7.74214C107.711 7.7483 107.255 7.66256 106.831 7.49022C106.408 7.31788 106.025 7.06263 105.706 6.74027C105.38 6.4372 105.121 6.07243 104.945 5.66834C104.768 5.26424 104.679 4.82934 104.681 4.3903C104.675 3.94823 104.763 3.50974 104.94 3.10237C105.116 2.69501 105.377 2.32756 105.706 2.02311C106.027 1.70516 106.411 1.45396 106.835 1.2847C107.258 1.11545 107.712 1.03168 108.17 1.03847C108.628 1.03168 109.082 1.11545 109.506 1.2847C109.929 1.45396 110.313 1.70516 110.634 2.02311C110.963 2.32766 111.224 2.69516 111.4 3.10252C111.576 3.50988 111.664 3.94832 111.658 4.3903C111.661 4.82916 111.571 5.26389 111.395 5.66787C111.219 6.07185 110.96 6.43657 110.634 6.73968C110.316 7.06214 109.933 7.31751 109.509 7.48995C109.085 7.66239 108.629 7.74822 108.17 7.74214Z" fill="#494949"/>
	</svg>
	