<svg width="65" height="65" viewBox="0 0 65 65" fill="none" xmlns="http://www.w3.org/2000/svg">
    <circle cx="32.5" cy="32.5" r="32.5" fill="#0F0F0F"/>
    <circle cx="32.5" cy="32.5" r="32" stroke="white" stroke-opacity="0.08"/>
    <g opacity="0.5" clip-path="url(#clip0_82_423)">
    <path d="M33.4092 32.6113L39.3434 26.981C39.9389 26.4152 39.9389 25.4989 39.3434 24.9331C38.7479 24.3674 37.7818 24.3674 37.1855 24.9331L32.3303 29.5399L27.4751 24.9331C26.8795 24.3674 25.9128 24.3674 25.3172 24.9331C24.7217 25.4989 24.7217 26.4152 25.3172 26.981L31.2514 32.6113C31.8469 33.1771 32.813 33.1771 33.4092 32.6113Z" fill="white"/>
    </g>
    <path d="M32.9798 42.6589L40.0717 35.9863C40.631 35.4601 40.631 34.6065 40.0717 34.0803C39.5124 33.554 38.6052 33.554 38.0458 34.0803L31.9676 39.7992L25.8894 34.0803C25.33 33.554 24.4229 33.554 23.8635 34.0803C23.3042 34.6065 23.3042 35.4601 23.8635 35.9863L30.9554 42.6589C31.5133 43.1852 32.4205 43.1852 32.9798 42.6589Z" fill="white"/>
    <defs>
    <clipPath id="clip0_82_423">
    <rect width="17.0492" height="17.0492" fill="white" transform="translate(40.4922 24.5088) rotate(90)"/>
    </clipPath>
    </defs>
    </svg>
    